# xmcd
#
# Track frame offsets:
# 150
# 13917
# 34225
# 50362
# 65202
# 80592
# 99502
# 111510
# 124337
# 146842
# 164377
# 178759
# 193945
# 202172
# 219290
# 247622
# 258595
# 273982
#
# Disc length: 3873 seconds
#
#
# Revision: 0
# Processed by: cddbd v1.5.2PL0 Copyright (c) Steve Scherf et al.
# Submitted via: FreeRIP 2.53 
#
DISCID=1a0f1f12
DTITLE=Martijn Schok - Doin' The Boogie Woogie
DYEAR=1996
DGENRE=Boogie Woogie
TTITLE0=Walking Bass Boogie
TTITLE1=MS Shuffle
TTITLE2=Suitcase Blues
TTITLE3=Sixes and Sevens
TTITLE4=Boogie Woogie Stomp
TTITLE5=After Hours
TTITLE6=Sixth Avenue Express
TTITLE7=Jimmy and Meade
TTITLE8=Blues for Martin
TTITLE9=Cow Cow Blues
TTITLE10=Vine Street Boogie
TTITLE11=Boogie Woogie Blues
TTITLE12=Pinetop Blues
TTITLE13=Bottomland Boogie
TTITLE14=Cuttin' The Boogie
TTITLE15=Red Sails In The Sunset
TTITLE16=Rocking Boogie
TTITLE17=Still Raining
EXTD=Oldie Blues OLCD 7109
EXTT0=
EXTT1=
EXTT2=
EXTT3=
EXTT4=
EXTT5=
EXTT6=
EXTT7=
EXTT8=
EXTT9=
EXTT10=
EXTT11=
EXTT12=
EXTT13=
EXTT14=
EXTT15=
EXTT16=
EXTT17=
PLAYORDER=
